<?xml version="1.0" encoding="UTF-8"?>
<svg id="a" data-name="Ebene_1" xmlns="http://www.w3.org/2000/svg" viewBox="0 0 1000 1000">
  <defs>
    <style>
      .b {
        fill: #f13141;
      }
    </style>
  </defs>
  <path class="b" d="M476.8,875.42c-146.95,0-257.14-30.93-330.6-92.8-73.47-61.86-110.2-156.07-110.2-282.62,0-82.25,19.15-151.33,57.47-207.22,38.31-55.89,93.67-97.89,166.09-126.02,72.4-28.11,159.24-42.18,260.47-42.18,62.56,0,120.74,5.8,174.53,17.4,53.78,11.6,100.87,28.66,141.31,51.15,40.42,22.51,71.71,50.8,93.85,84.89,22.15,34.11,33.22,74,33.22,119.69h-208.8c0-19.67-6.16-36.73-18.45-51.15-12.31-14.4-29-26.18-50.09-35.33-21.09-9.13-45-15.98-71.71-20.56-26.72-4.57-54.84-6.85-84.36-6.85-42.18,0-80.14,4.22-113.89,12.65-33.75,8.44-62.58,21.27-86.47,38.49-23.91,17.23-42.02,38.49-54.31,63.8-12.31,25.31-18.46,54.84-18.46,88.58v25.31c0,47.82,9.84,86.65,29.53,116.53,19.68,29.89,48.51,51.85,86.47,65.91,37.96,14.07,84.36,21.09,139.2,21.09,49.91,0,92.96-4.38,129.18-13.18,36.2-8.78,63.97-21.96,83.31-39.55,19.33-17.56,29-37.96,29-61.16v-6.33h-253.09v-138.15h464v404.95h-125.49l-20.04-86.47c-27.42,22.51-58.53,41.13-93.33,55.89-34.8,14.76-72.94,25.67-114.42,32.69-41.49,7.02-86.13,10.55-133.93,10.55Z"/>
</svg>